<mxfile host="app.diagrams.net" modified="2021-01-07T05:53:52.288Z" agent="5.0 (Windows NT 10.0; Win64; x64) AppleWebKit/537.36 (KHTML, like Gecko) Chrome/87.0.4280.88 Safari/537.36" etag="MfahXO_y35GInV59FNQI" version="14.1.8" type="github">
  <diagram name="Page-1" id="e7e014a7-5840-1c2e-5031-d8a46d1fe8dd">
    <mxGraphModel dx="1422" dy="762" grid="1" gridSize="10" guides="1" tooltips="1" connect="1" arrows="1" fold="1" page="1" pageScale="1" pageWidth="1169" pageHeight="826" background="#ffffff" math="0" shadow="0">
      <root>
        <mxCell id="0" />
        <mxCell id="1" parent="0" />
        <mxCell id="2" value="申请人" style="swimlane;whiteSpace=wrap" parent="1" vertex="1">
          <mxGeometry x="164.5" y="128" width="195.5" height="570" as="geometry" />
        </mxCell>
        <mxCell id="5" value="" style="ellipse;shape=startState;fillColor=#000000;strokeColor=#ff0000;" parent="2" vertex="1">
          <mxGeometry x="100" y="40" width="30" height="30" as="geometry" />
        </mxCell>
        <mxCell id="6" value="" style="edgeStyle=elbowEdgeStyle;elbow=horizontal;verticalAlign=bottom;endArrow=open;endSize=8;strokeColor=#FF0000;endFill=1;rounded=0" parent="2" source="5" target="7" edge="1">
          <mxGeometry x="100" y="40" as="geometry">
            <mxPoint x="115" y="110" as="targetPoint" />
          </mxGeometry>
        </mxCell>
        <mxCell id="7" value="采购申请" style="" parent="2" vertex="1">
          <mxGeometry x="60" y="92" width="110" height="50" as="geometry" />
        </mxCell>
        <mxCell id="8" value="填写采购单" style="" parent="2" vertex="1">
          <mxGeometry x="60" y="162" width="110" height="50" as="geometry" />
        </mxCell>
        <mxCell id="9" value="" style="endArrow=open;strokeColor=#FF0000;endFill=1;rounded=0" parent="2" source="7" target="8" edge="1">
          <mxGeometry relative="1" as="geometry" />
        </mxCell>
        <mxCell id="Ud3-qctQPVl4IPbj0E7p-63" style="edgeStyle=orthogonalEdgeStyle;rounded=0;orthogonalLoop=1;jettySize=auto;html=1;entryX=0.5;entryY=0;entryDx=0;entryDy=0;" edge="1" parent="2" source="10" target="Ud3-qctQPVl4IPbj0E7p-49">
          <mxGeometry relative="1" as="geometry" />
        </mxCell>
        <mxCell id="10" value="入库使用" style="" parent="2" vertex="1">
          <mxGeometry x="60" y="407" width="110" height="50" as="geometry" />
        </mxCell>
        <mxCell id="Ud3-qctQPVl4IPbj0E7p-49" value="" style="ellipse;shape=endState;fillColor=#000000;strokeColor=#ff0000" vertex="1" parent="2">
          <mxGeometry x="100" y="532" width="30" height="30" as="geometry" />
        </mxCell>
        <mxCell id="3" value="采购员" style="swimlane;whiteSpace=wrap" parent="1" vertex="1">
          <mxGeometry x="360" y="128" width="180" height="570" as="geometry" />
        </mxCell>
        <mxCell id="16" value="库存调查" style="" parent="3" vertex="1">
          <mxGeometry x="30" y="162" width="110" height="50" as="geometry" />
        </mxCell>
        <mxCell id="18" value="采购预算" style="" parent="3" vertex="1">
          <mxGeometry x="30" y="235" width="110" height="50" as="geometry" />
        </mxCell>
        <mxCell id="19" value="" style="endArrow=open;strokeColor=#FF0000;endFill=1;rounded=0" parent="3" source="16" target="18" edge="1">
          <mxGeometry relative="1" as="geometry" />
        </mxCell>
        <mxCell id="33" value="执行采购" style="" parent="3" vertex="1">
          <mxGeometry x="30" y="312" width="110" height="50" as="geometry" />
        </mxCell>
        <mxCell id="Ud3-qctQPVl4IPbj0E7p-59" value="采购到所需物资" style="rhombus;whiteSpace=wrap;html=1;" vertex="1" parent="3">
          <mxGeometry x="45" y="392" width="80" height="80" as="geometry" />
        </mxCell>
        <mxCell id="Ud3-qctQPVl4IPbj0E7p-60" value="" style="edgeStyle=orthogonalEdgeStyle;rounded=0;orthogonalLoop=1;jettySize=auto;html=1;" edge="1" parent="3" source="33" target="Ud3-qctQPVl4IPbj0E7p-59">
          <mxGeometry relative="1" as="geometry" />
        </mxCell>
        <mxCell id="4" value="采购主管" style="swimlane;whiteSpace=wrap" parent="1" vertex="1">
          <mxGeometry x="540" y="128" width="190" height="570" as="geometry" />
        </mxCell>
        <mxCell id="Ud3-qctQPVl4IPbj0E7p-53" value="审批" style="rhombus;whiteSpace=wrap;html=1;" vertex="1" parent="4">
          <mxGeometry x="45" y="220" width="80" height="80" as="geometry" />
        </mxCell>
        <mxCell id="Ud3-qctQPVl4IPbj0E7p-41" value="财务部" style="swimlane;whiteSpace=wrap" vertex="1" parent="1">
          <mxGeometry x="730" y="128" width="150" height="570" as="geometry" />
        </mxCell>
        <mxCell id="Ud3-qctQPVl4IPbj0E7p-55" value="审批" style="rhombus;whiteSpace=wrap;html=1;" vertex="1" parent="Ud3-qctQPVl4IPbj0E7p-41">
          <mxGeometry x="50" y="222" width="80" height="80" as="geometry" />
        </mxCell>
        <mxCell id="Ud3-qctQPVl4IPbj0E7p-47" value="总经理" style="swimlane;whiteSpace=wrap" vertex="1" parent="1">
          <mxGeometry x="880" y="128" width="150" height="570" as="geometry" />
        </mxCell>
        <mxCell id="Ud3-qctQPVl4IPbj0E7p-56" value="审批" style="rhombus;whiteSpace=wrap;html=1;" vertex="1" parent="Ud3-qctQPVl4IPbj0E7p-47">
          <mxGeometry x="30" y="222" width="80" height="80" as="geometry" />
        </mxCell>
        <mxCell id="Ud3-qctQPVl4IPbj0E7p-51" style="edgeStyle=orthogonalEdgeStyle;rounded=0;orthogonalLoop=1;jettySize=auto;html=1;entryX=0;entryY=0.5;entryDx=0;entryDy=0;" edge="1" parent="1" source="8" target="16">
          <mxGeometry relative="1" as="geometry" />
        </mxCell>
        <mxCell id="Ud3-qctQPVl4IPbj0E7p-52" style="edgeStyle=orthogonalEdgeStyle;rounded=0;orthogonalLoop=1;jettySize=auto;html=1;exitX=1;exitY=0.5;exitDx=0;exitDy=0;entryX=0;entryY=0.5;entryDx=0;entryDy=0;" edge="1" parent="1" source="18" target="Ud3-qctQPVl4IPbj0E7p-53">
          <mxGeometry relative="1" as="geometry">
            <mxPoint x="580" y="388" as="targetPoint" />
          </mxGeometry>
        </mxCell>
        <mxCell id="Ud3-qctQPVl4IPbj0E7p-57" style="edgeStyle=orthogonalEdgeStyle;rounded=0;orthogonalLoop=1;jettySize=auto;html=1;exitX=1;exitY=0.5;exitDx=0;exitDy=0;entryX=0;entryY=0.5;entryDx=0;entryDy=0;" edge="1" parent="1" source="Ud3-qctQPVl4IPbj0E7p-55" target="Ud3-qctQPVl4IPbj0E7p-56">
          <mxGeometry relative="1" as="geometry" />
        </mxCell>
        <mxCell id="Ud3-qctQPVl4IPbj0E7p-58" style="edgeStyle=orthogonalEdgeStyle;rounded=0;orthogonalLoop=1;jettySize=auto;html=1;exitX=0.5;exitY=1;exitDx=0;exitDy=0;entryX=1;entryY=0.5;entryDx=0;entryDy=0;" edge="1" parent="1" source="Ud3-qctQPVl4IPbj0E7p-56" target="33">
          <mxGeometry relative="1" as="geometry" />
        </mxCell>
        <mxCell id="Ud3-qctQPVl4IPbj0E7p-62" style="edgeStyle=orthogonalEdgeStyle;rounded=0;orthogonalLoop=1;jettySize=auto;html=1;exitX=0;exitY=0.5;exitDx=0;exitDy=0;entryX=1;entryY=0.5;entryDx=0;entryDy=0;" edge="1" parent="1" source="Ud3-qctQPVl4IPbj0E7p-59" target="10">
          <mxGeometry relative="1" as="geometry" />
        </mxCell>
        <object label="" id="Ud3-qctQPVl4IPbj0E7p-54">
          <mxCell style="edgeStyle=orthogonalEdgeStyle;rounded=0;orthogonalLoop=1;jettySize=auto;exitX=1;exitY=0.5;exitDx=0;exitDy=0;fontStyle=0;horizontal=1;" edge="1" parent="1" source="Ud3-qctQPVl4IPbj0E7p-53">
            <mxGeometry relative="1" as="geometry">
              <mxPoint x="780" y="388" as="targetPoint" />
            </mxGeometry>
          </mxCell>
        </object>
      </root>
    </mxGraphModel>
  </diagram>
</mxfile>
